<svg xmlns="http://www.w3.org/2000/svg" xmlns:xlink="http://www.w3.org/1999/xlink" width="1123" height="794">
  <path d="M222.0015 1019.5c-1.848 0-3.588-.72-4.8915-2.028l-30.5836-30.5813a6.962 6.962 0 0 1-2.0264-4.8915c0-1.8209.738-3.6029 2.0264-4.8899l30.5836-30.5815c1.3065-1.3078 3.0435-2.0278 4.8915-2.0278s3.585.72 4.8915 2.0278l30.579 30.5815c1.3095 1.302 2.028 3.0404 2.028 4.8899s-.7185 3.588-2.0294 4.8944l-30.5776 30.5784c-1.305 1.308-3.045 2.028-4.8915 2.028" fill="#7fba00"/>
  <path d="M252.9195 981.4908L243 971.5729v7.0018l-10.5239-.009c-1.0155-3.6269-3.8596-6.4918-7.4761-7.5299v-10.0346h6.9195l-9.9194-9.9194-9.9181 9.9194H219v10.0332c-3.6105 1.038-6.4514 3.894-7.4715 7.5119L201 978.5374v-6.927l-9.9195 9.9194L201 991.4475v-7.0018l10.533.0089c1.0245 3.6105 3.861 6.4575 7.467 7.4939v6.9539c-1.4999 1.092-3.792 3.387-3.792 6.0599 0 3.7214 3.0496 6.7499 6.7711 6.7499s6.7649-3.0285 6.7649-6.7499c0-2.6429-2.2439-4.9108-3.744-6.0193v-6.9945c3.5985-1.0335 6.4336-3.8744 7.4626-7.4743l10.5374.009v6.9268l9.9195-9.9192z"/>
  <path d="M222 973.6038c-4.3485 0-7.887 3.5384-7.887 7.8869s3.5385 7.8868 7.887 7.8868 7.887-3.537 7.887-7.8868-3.5385-7.8869-7.887-7.8869z" fill="#59b4d9"/>
  <path d="M226.893 946.5278a6.868 6.868 0 0 0-4.8915-2.0278c-1.8464 0-3.5835.72-4.89 2.0278l-30.5836 30.5815c-1.2899 1.287-2.0279 3.069-2.0279 4.8899s.738 3.6045 2.0279 4.8915l17.3146 17.3155 32.5725-48.158-9.522-9.5204z" opacity=".15"/>
  <path d="M91.8579 395.534c-4.0245 0-7.6054 2.9314-7.6054 6.2322 0 2.1994 1.7873 4.3987 4.0245 5.4984v25.6712l-23.2494 11.3646 3.5767 4.7665 25.0367-12.0984c.8957-.3659 1.7894-1.4656 1.7894-2.5671v-27.1298c2.6851-1.1067 4.033-3.2991 4.033-5.4985.4394-3.3008-3.1373-6.2391-7.6055-6.2391zm-8.0511-4.0258L58.77 379.7758c-.8957-.3677-2.2372-.3677-3.5766 0l-28.6155 13.564c-1.3143-.7441-2.8788-1.1288-4.4725-1.0997-4.0139 0-7.6054 2.9331-7.6054 6.2322s3.5767 6.2339 7.6054 6.2339 7.6055-2.9331 7.6055-6.2339l27.274-12.8303 23.2388 10.9987zm-30.3986 48.3934q-2.0134 0-4.014 1.0997l-23.2389-10.9987v-21.9973h-7.1829v23.463c0 1.1015.8936 2.2011 1.7873 2.5671l25.043 11.3647v.3677c0 3.2991 3.5767 6.2322 7.6055 6.2322s7.6054-2.9331 7.6054-6.2322-3.5914-5.8662-7.6054-5.8662z" fill="#aecbfa"/>
  <path d="M79.3364 403.2388l-21.9079-10.6309-22.3558 10.6309 22.3558 10.2668 21.9079-10.2668zm-21.9079 13.9318l-23.6973-11.3647v9.1653l23.6973 10.9986v-8.7992zm0 12.4661l-23.6973-11.3664v7.6996l23.6973 11.3646v-7.6978z" fill="#669df6"/>
  <path d="M57.4222 417.1654v8.8115l23.6952-11.3786v-8.7819zm19.4361-3.4856c-.952 0-1.7239-.6367-1.7239-1.4221s.7719-1.4221 1.7239-1.4221 1.7239.6367 1.7239 1.4221-.7732 1.4192-1.7239 1.4221zm-19.4361 15.9499v7.6961l23.6952-11.349v-7.6961zm19.4361-3.9875c-.952 0-1.7239-.6367-1.7239-1.4221s.7719-1.4221 1.7239-1.4221 1.7239.6367 1.7239 1.4221-.7732 1.4192-1.7239 1.4221z" fill="#4285f4"/>
  <path d="M228.9598 573.1191h-17.688l6.2761-6.2772-11.9822-11.9812v28.8141h8.8442l-12.5524 12.5524-12.5523-12.5524h8.844v-28.529l-11.9821 11.9823 6.2761 6.2761h-17.6881v-17.6881l6.2761 6.2762 15.1202-15.1204c-2.2817-.8552-3.9933-2.5667-5.7049-4.5635-4.8507-6.5623-3.7093-15.6914 2.852-20.5412 2.5678-1.9966 5.7059-3.1381 8.844-3.1381 4.2795 0 8.8441 1.9967 11.6971 5.7061 4.8496 6.5612 3.7083 15.6904-2.853 20.5401-.8563.8563-1.9966 1.4265-2.8529 1.7116l15.1202 15.1202 6.2761-6.2761v17.6881h-.5702zM201.8575 604.5c2.2827 0 4.5645-.8552 6.2762-2.5669l38.7994-38.5144c1.7117-1.7116 2.5669-3.9933 2.5669-6.2762 0-2.5668-.8552-4.5645-2.5669-6.2762l-38.7994-38.7985c-1.7117-1.7115-3.9935-2.5678-6.2762-2.5678s-4.5646.8563-6.2762 2.5678l-38.5135 38.5135c-1.7115 1.7116-2.5678 3.9944-2.5678 6.2762s.8563 4.5645 2.5678 6.2762l38.5135 38.5133c1.7116 1.7126 3.9944 2.853 6.2762 2.853zm-7.9878-61.6214c2.2817 1.9967 5.1347 2.853 7.9878 2.853 2.5679 0 5.4208-.8563 7.7026-2.5679.2851-.2851.8563-.5702 1.1414-.8553-1.1414 0-2.8529 0-4.8496-.5712-.2862.2851-.2862.5712-.5713.5712-1.1404.8553-2.5668.5702-3.7082-.5712-.2851-.5701-.5712-1.1414-.5712-1.7116-1.1405-.5702-2.5669-1.4265-3.7083-2.2828-.2851-.2851-.8563-.5701-1.1415-.8552-.5701.2851-1.1403.2851-1.7115.2851-.5702 2.2827-.8554 4.2794-.5702 5.7059h0zm0 0c-.2852 0-.2852 0 0 0-.2852 0-.2852 0 0 0h0zm-2.5679-2.5678c.2851.285.2851 0 0 0h0zm0 0c0-1.4266.2851-2.8531.8563-4.2796l-.2862-.2851c-1.1403-1.4265-1.1403-3.4232 0-4.5646-.8552-1.9967-.8552-3.9933-.5701-5.1348-2.853 3.9935-3.1381 9.6994 0 14.2641zm1.4264-16.2618c-.285 1.1414-.285 3.1392.8563 5.421.5703-.2852 1.4266-.2852 1.9968 0l.5701-.5703c1.1415-1.1414 2.2829-2.2827 3.4243-3.1381h0c-1.4265-1.4264-2.5679-2.8529-3.4243-4.2795-.8552.2851-1.4264.8554-1.9966 1.4266-.5703.2851-1.1414.8552-1.4266 1.1403zm3.4232-2.5669c1.7117-.5712 1.7117-.5712 1.7117-.8563l-1.7117.8563zm1.7117-.5712c1.1413 1.4266 2.2827 2.568 3.4242 3.9944h0c3.4232-1.7115 6.5613-1.9966 8.5579-1.7115-2.2818-1.9967-5.1347-2.853-7.9877-2.853-1.4265 0-2.568.285-3.9944.5701zm11.9821 2.2829l1.9978 1.9966h0c-.5712-.8552-1.1415-1.4265-1.9978-1.9966h0zm1.9978 1.9966c-.2862 0-3.4243-.2851-7.9888 2.2829 1.4264 1.4264 2.8529 2.853 4.2795 3.9933 1.1413-.5702 2.5678-.2851 3.4231.8563.5713.8554.8563 1.7117.2862 2.5679 1.1403.8553 1.7115 1.4265 2.2817 1.7116.8563-3.9944.2852-7.9888-2.2817-11.412h0zm2.2817 11.1269c0 .2851 0 0 0 0h0zm0 .5703c0 .2851 0 .2851-.2851.5701 0-.285 0-.5701.2851-.5701zm-.2851.5701c-.5712-.285-1.4265-.8553-2.5678-1.7116h-.2852c-1.1414.8563-2.8529.5712-3.7083-.5702-.5712-.8563-.8563-1.9976-.286-2.853-1.7117-1.1414-3.1381-2.5678-4.8498-3.9944l-3.4231 2.5679-.5702.5702c.5702 1.1414.5702 2.568-.2861 3.7093.2861.2851.5712.2851.8563.5702 1.1413.8563 2.2818 1.7116 3.4231 2.2828 1.1414-.8562 2.568-.5712 3.4232.5702.2862.2851.2862.5702.5712 1.1414 3.1381.8553 5.4199.5703 6.2762.2851.5702-.8563 1.1414-1.7116 1.4265-2.5679h0zm0-.285c0 .285 0 .285 0 0 0 .285 0 .285 0 0zm-1.4265 2.8529s0 .2852-.285.2852c0 0 .285 0 .285-.2852h0zm-10.2706-11.6971s-.285 0 0 0c-.285 0 0 0 0 0h0zm0 0h0 0z" fill="#0078d7"/>
  <path fill="#f7df1e" d="M254.5 709.5h30v30h-30z"/>
  <path d="M268 733.125v-9.75h2.625v9.75c0 3.75-5.25 6-8.25 1.5l2.25-1.5c1.125 2.25 3.375 1.5 3.375 0zm11.25-6.375c-1.5-2.0625-3.375-1.125-3.375.1875 0 2.0625 6.1875 1.6875 6.1875 6.1875-.1875 5.25-7.5 5.0625-9.75 1.125l2.25-1.3125c1.6875 2.625 4.6875 1.6875 4.6875.1875-.1875-2.625-6-1.3125-6-6.1875-.1875-3.75 5.4375-5.8125 8.0625-1.5L279.25 726.75" fill="#323232"/>
  <path fill="#222" d="M284.5 709.5h25v30h-25z"/>
  <g fill="#00d8ff">
    <ellipse cx="296.9804" cy="724.4814" rx="2.0903" ry="2.5083"/>
    <path d="M285.3333 724.5c0-3.1855 5.2033-5.75 11.6667-5.75s11.6666 2.5645 11.6666 5.75-5.2033 5.75-11.6666 5.75-11.6667-2.5645-11.6667-5.75zm1.0417 0c0-2.493 4.7387-4.5 10.625-4.5s10.625 2.007 10.625 4.5S302.8862 729 297 729s-10.625-2.007-10.625-4.5z"/>
    <path d="M290.046 712.4555c2.576-1.4873 7.7515 2.6875 11.6041 9.3604s4.8803 13.2424 2.3043 14.7296-7.7516-2.6875-11.6042-9.3604-4.8803-13.2424-2.3042-14.7297zm.6209 1.0754c2.016-1.1639 6.4637 2.7914 9.9723 8.8686s4.7102 11.9066 2.6942 13.0705-6.4637-2.7913-9.9724-8.8685-4.7103-11.9066-2.6942-13.0706z"/>
    <path d="M303.9544 712.4556c2.576 1.4873 1.5483 8.0567-2.3043 14.7296s-9.0281 10.8477-11.6041 9.3604-1.5484-8.0568 2.3042-14.7297 9.0281-10.8477 11.6042-9.3604zm-.6209 1.0754c2.016 1.1639.8144 6.9934-2.6943 13.0706s-7.9563 10.0325-9.9723 8.8685-.8145-6.9934 2.6941-13.0706 7.9563-10.0325 9.9724-8.8685z"/>
  </g>
  <path d="M241.3094 784.5h-83.6188c-4.5711 0-8.1906-3.7163-8.1906-8.4108v-63.1784c0-4.6945 3.6195-8.4108 8.1906-8.4108h83.6188c4.5711 0 8.1906 3.7163 8.1906 8.4108v63.1784c0 4.6945-3.6195 8.4108-8.1906 8.4108z"/>
  <g fill="#515150">
    <path d="M154.453 734.8177h88.9515v4.1079H154.453z"/>
    <path d="M179.7862 737.5562h3.9995v41.271h-3.9995zm-17.3337-12.3226h5.3336v5.4766h-5.3336zm10.6666 0h5.3336v5.4766h-5.3336zm10.6667 0h5.3336v5.4766h-5.3336zm10.4765 0h5.3327v5.4766h-5.3327zm10.6663 0h5.333v5.4766h-5.333zm-45.1429 19.3641h14.6669v2.7386h-14.6669zm5.3337 8.2154h9.3332v2.7382h-9.3332z"/>
    <path d="M165.1194 761.0279h9.3332v2.7386h-9.3332zm-5.3337 8.2153h14.6669v2.7386h-14.6669zm81.5237-61.809h-83.6188c-2.857 0-5.333 2.5426-5.333 5.4766v63.1785c0 2.9336 2.476 5.4766 5.333 5.4766h83.6188c2.8569 0 5.3336-2.543 5.3336-5.4766v-63.1785c0-2.934-2.2859-5.4766-5.3336-5.4766zm-10.4766 4.1073h4.0002v4.1075h-4.0002v-4.1075zm-7.9998 0h4.0003v4.1075h-4.0003v-4.1075zm-66.4759 64.5478v-37.1637h23.8099v38.5329h-22.4764c-.7617 0-1.3335-.5871-1.3335-1.3692zm86.2857 0c0 .7821-.5718 1.3692-1.3334 1.3692h-57.143v-38.5329h58.4764v37.1637zm0-41.2716h-86.2857v-13.6916h86.2857v13.6916zm0-19.1687h-4.0003v-4.1075h4.0003v4.1075zm-79.6185 9.5846h5.333v5.4766h-5.333zm10.6667 0h5.3327v5.4766h-5.3327zm10.6663 0h5.3336v5.4766h-5.3336zm10.4757 0h5.3336v5.4766h-5.3336zm10.6674 0h5.333v5.4766h-5.333z"/>
    <path d="M160.3575 744.5977h14.6669v2.7386h-14.6669zm5.3336 8.2154h9.3332v2.7382h-9.3332zm0 8.2148h9.3332v2.7386h-9.3332zm-5.3336 8.2153h14.6669v2.7386h-14.6669z"/>
  </g>
  <path d="M179.5 640.9184L202 619.5l22.5 21.4184-5.5589 4.5636-13.1497-12.5178v61.192h-7.5827v-61.192l-13.1498 12.5178z" fill="#3f3f3f"/>
  <g fill="#0078d7">
    <use xlink:href="#B"/>
    <use xlink:href="#C"/>
    <use xlink:href="#D"/>
  </g>
  <path d="M117 419.7728c0-1.4102 1.2544-2.5455 2.8125-2.5455s2.8125 1.1353 2.8125 2.5455-1.2544 2.5454-2.8125 2.5454S117 421.1829 117 419.7728z" fill="#d22f27"/>
  <text font-family="Montserrat" fill="#000" font-size="10">
    <tspan x="57.5" y="460.6571">Post WebService</tspan>
  </text>
  <g fill="#0078d7">
    <use xlink:href="#B" y="-20"/>
    <use xlink:href="#C" y="-20"/>
    <use xlink:href="#D" y="-20"/>
  </g>
  <path d="M117 399.7728c0-1.4102 1.2544-2.5455 2.8125-2.5455s2.8125 1.1353 2.8125 2.5455-1.2544 2.5454-2.8125 2.5454S117 401.1829 117 399.7728z" fill="#d22f27"/>
  <g fill="#0078d7">
    <use xlink:href="#B" y="20"/>
    <use xlink:href="#C" y="20"/>
    <use xlink:href="#D" y="20"/>
  </g>
  <path d="M117 439.7728c0-1.4102 1.2544-2.5455 2.8125-2.5455s2.8125 1.1353 2.8125 2.5455-1.2544 2.5454-2.8125 2.5454S117 441.1829 117 439.7728z" fill="#d22f27"/>
  <defs>
    <path id="B" d="M115.3634 412.4517c0-.6481.4912-1.1699 1.1013-1.1699s1.1013.5218 1.1013 1.1699-.4912 1.1699-1.1013 1.1699-1.1013-.5218-1.1013-1.1699z"/>
    <path id="C" d="M110.8431 415.2167c-.5769 0-1.1013.5014-1.1013 1.1699 0 .6128.472 1.1699 1.1013 1.1699.5769 0 1.1013-.5014 1.1013-1.1699-.0524-.6685-.5244-1.1699-1.1013-1.1699z"/>
    <path id="D" d="M119.9881 412.8565l-.9964.3343-.2622.5571.367.8357.0525.1114-.5244.5571-.8915-.39-.5245.2228-.2622.8914-.0525.1114h-.7866l-.3146-1.0028-.5245-.2228-.7866.39-.1049.0557-.5245-.5571.4195-.9471-.2097-.5571-.6817-.2785v-.0557-.8357l.7866-.3342.1573-.5572-.4195-.8356-.0525-.1114.5245-.5571.8915.4456.5245-.2228.2622-.8356.0524-.0558h.7866l.3147.9471.5245.1671.7866-.4456.1049-.0557.5244.557-.4195.9471.2098.5571.8915.2786.1573.0557v.8356zm-12.534 3.1198l.944-.3343.2098-.5571-.3671-.8356-.0525-.1114.5245-.5571.8915.4456.5244-.2228.2623-.7799.0524-.0557h.7866l.3147.8913.5245.2229.7866-.4457.1049-.0557.5244.5571-.4195.947.2097.5571.7342.2786.0525.0557v.8357l-.8391.2785-.2098.5571.4196.8357.0524.1114-.5244.5571-.8915-.39-.5245.2228-.2622.8914-.0525.1114h-.7866l-.3671-1.0028-.5244-.2228-.7867.39-.1049.0557-.5244-.5571.4196-.9471-.2098-.5571-.8391-.2785-.1049-.0557v-.8357h.0524zm14.2122-4.1783l-.4196-.1671.1049-.4457c.1049-.4457.1573-.8913.1573-1.337 0-2.9526-2.255-5.3482-5.0345-5.3482-2.0453 0-3.8808 1.2813-4.6675 3.2869l-.3146.7243-.472-.6129c-.6818-.8356-1.6257-1.2813-2.6222-1.2813-1.888 0-3.4612 1.6156-3.4612 3.6769 0 .3342.0524.6685.1048 1.0027l.1049.4458-.4195.167c-1.6782.6686-2.7271 2.117-2.7271 3.8998 0 2.3398 1.8355 4.1782 4.1431 4.1782h1.0488c-.0524 0-.0524.39-.0524.6129 0 2.1727 1.6782 3.8997 3.671 3.8997 1.4684 0 2.832-.9471 3.4089-2.3956l.2097-.557.3671.4456c.472.6129 1.2062.9471 1.8879.9471 1.3636 0 2.5174-1.2256 2.5174-2.6741v-.2786h1.1536c2.3076 0 4.1431-1.8384 4.1431-4.1782.0525-1.8942-1.0488-3.3983-2.8319-4.0112z"/>
  </defs>
</svg>
